<?xml version="1.0" encoding="UTF-8"?><svg id="Warstwa_1" xmlns="http://www.w3.org/2000/svg" width="1920" height="301.6972" xmlns:xlink="http://www.w3.org/1999/xlink" viewBox="0 0 1920 301.6972"><defs><style>.cls-1{fill:#0198ff;}.cls-2{fill:#0149ff;}.cls-3{fill:url(#Gradient_bez_nazwy_196);}.cls-4{fill:url(#Gradient_bez_nazwy_201);}.cls-5{fill:url(#Gradient_bez_nazwy_76);}</style><linearGradient id="Gradient_bez_nazwy_201" x1="191.7185" y1="63.1521" x2="225.6065" y2="110.373" gradientUnits="userSpaceOnUse"><stop offset=".0056" stop-color="#0118ff"/><stop offset="1" stop-color="#0169ff"/></linearGradient><linearGradient id="Gradient_bez_nazwy_196" x1="340.3122" y1="41.8441" x2="406.0627" y2="212.7956" gradientUnits="userSpaceOnUse"><stop offset=".3911" stop-color="#0198ff"/><stop offset="1" stop-color="#0198ff" stop-opacity="0"/></linearGradient><linearGradient id="Gradient_bez_nazwy_76" x1="401.6598" y1="58.3394" x2="401.6598" y2="438.1053" gradientUnits="userSpaceOnUse"><stop offset=".0056" stop-color="#0118ff"/><stop offset=".2821" stop-color="#016eff" stop-opacity=".6577"/><stop offset=".4335" stop-color="#018cff" stop-opacity=".1873"/><stop offset=".5" stop-color="#0198ff" stop-opacity="0"/><stop offset="1" stop-color="#0198ff" stop-opacity="0"/></linearGradient></defs><path class="cls-1" d="m635.0049,69.1727h0c6.3315,0,12.0289,3.8453,14.397,9.7169l59.7959,148.2418h-25.6132l-16.0873-40.5603h-64.5614l-16.299,40.5603h-25.8249l59.7959-148.2418c2.3681-5.8716,8.0655-9.7169,14.397-9.7169Zm22.9671,94.415l-22.861-57.4604-23.0727,57.4604h45.9336Z"/><path class="cls-1" d="m720.8407,68.4958h23.7083v158.6356h-23.7083V68.4958Z"/><path class="cls-1" d="m874.5105,112.4372h-60.3264c-33.6551,0-55.8709,23.4313-55.8709,56.7907,0,33.1179,22.2158,58.36,55.8709,58.36,33.8683,0,56.3102-25.2421,56.3102-58.36,0-15.5554-5.0771-29.0744-13.7595-38.9876h17.7757v-17.803Zm-60.3264,92.1572c-19.6839,0-30.2616-16.2198-30.2616-35.3665,0-19.6138,10.3655-34.0382,30.2616-34.0382,20.1093,0,30.4882,14.4244,30.4882,34.0382,0,19.3728-10.3789,35.3665-30.4882,35.3665Z"/><path class="cls-1" d="m876.6314,243.355c-6.9854,13.7451-27.7307,33.345-59.6893,33.345s-52.7039-19.5999-59.6893-33.345l16.2904-14.4239c5.5005,14.4239,23.5023,26.147,43.3989,26.147s37.884-11.7231,43.3845-26.147l16.3048,14.4239Z"/><path class="cls-1" d="m940.9835,112.4367c33.6561,0,56.3054,23.4351,56.3054,56.784,0,33.1237-22.4371,58.3624-56.3054,58.3624-33.6571,0-55.8828-25.2387-55.8828-58.3624,0-33.3489,22.2258-56.784,55.8828-56.784Zm30.4815,56.784c0-19.6042-10.3727-34.0253-30.4815-34.0253-19.8975,0-30.2702,14.421-30.2702,34.0253,0,19.1539,10.584,35.3776,30.2702,35.3776,20.1088,0,30.4815-15.9985,30.4815-35.3776Z"/><path class="cls-2" d="m1078.892,69.1727h0c6.3316,0,12.0284,3.8453,14.397,9.7169l59.7954,148.2418h-25.6127l-16.0873-40.5603h-64.5614l-16.299,40.5603h-25.8249l59.7955-148.2418c2.3686-5.8716,8.0659-9.7169,14.3974-9.7169Zm22.9671,94.415l-22.8614-57.4604-23.0721,57.4604h45.9336Z"/><path class="cls-2" d="m1214.8965,205.2751c12.4893,0,21.5907-7.2115,27.7302-18.479l18.8395,14.8732c-10.7966,16.9001-25.8253,26.1388-46.3575,26.1388-34.2918,0-56.7298-25.4639-56.7298-57.6855s22.438-57.686,56.7298-57.686c20.5322,0,35.5609,9.2388,46.3575,26.1393l-18.8395,14.8713c-6.1395-11.267-15.241-18.4771-27.7302-18.4771-17.9917,0-30.9049,14.8713-30.9049,35.1524s12.9132,35.1524,30.9049,35.1524Z"/><path class="cls-2" d="m1320.7355,227.5831c-29.4224,0-50.8015-24.1115-50.8015-57.4604,0-34.2509,22.4366-57.686,55.8824-57.686,31.3268,0,54.6117,20.5048,54.6117,54.5306v59.9389h-23.7073v-16.4498c-6.9849,10.5921-20.5322,17.1266-35.9853,17.1266Zm35.9853-57.2352v-2.479c0-19.8294-12.0654-32.8986-30.2693-32.8986-19.0517,0-31.9639,14.421-31.9639,34.7007,0,20.5058,12.9122,35.1524,30.6932,35.1524,17.9927,0,31.54-14.8718,31.54-34.4756Z"/><path class="cls-2" d="m1393.1301,169.2207c0-32.4483,22.6493-56.784,53.1298-56.784,15.2405,0,27.5185,6.0833,34.9274,17.1257v-60.3897h23.7072v157.9587h-16.9336l-6.7737-18.7022c-8.044,12.1676-21.5913,19.1539-36.6205,19.1539-28.7873,0-51.4366-25.6885-51.4366-58.3624Zm88.0571.902v-2.2539c0-19.8294-12.0654-32.8986-30.0581-32.8986-19.4741,0-32.3863,15.0965-32.3863,34.7007,0,18.4775,11.6415,34.9273,30.9049,34.9273,18.2035,0,31.5396-14.6467,31.5396-34.4756Z"/><path class="cls-2" d="m1543.2105,171.9248c.8463,19.3791,13.9698,33.3503,31.9624,33.3503,12.0654,0,22.0141-6.3099,28.5766-18.479l18.839,14.8732c-11.219,17.5755-26.8834,26.1388-47.6268,26.1388-34.9273,0-57.3639-24.1115-57.3639-57.6855,0-30.8717,21.3785-57.686,55.2468-57.686,31.54,0,52.0722,23.4351,52.0722,59.4882h-81.7063Zm53.3424-21.1812c-5.0805-8.7885-13.9712-15.5482-24.5546-15.5482-10.7951,0-19.6858,6.7597-24.9776,15.5482h49.5322Z"/><path class="cls-2" d="m1637.6202,227.1313v-112.8925h23.7083v15.3235c6.9849-10.5906,17.9927-17.1257,31.9624-17.1257,17.3576,0,28.7878,10.1394,34.2922,24.1106,6.5609-14.6467,20.956-24.1106,36.8316-24.1106,24.7663,0,37.8898,22.9834,37.8898,47.3205v67.3741h-23.9201v-65.7971c0-13.7451-8.2551-26.364-21.3785-26.364-13.5473,0-25.1903,13.0692-25.1903,32.8986v59.2625h-23.9181v-65.7971c0-13.7451-8.2556-26.364-21.3805-26.364-13.5473,0-25.1888,13.0692-25.1888,32.8986v59.2625h-23.7083Z"/><path class="cls-2" d="m1849.0874,229.3852l-41.4883-115.1464h26.2478l29.6341,77.9667,30.2707-77.9667h26.2483l-69.0068,169.0015h-22.6493l20.7434-53.8551Z"/><path class="cls-4" d="m284.7189,147.087l-34.116,73.3064-34.4198-81.2708-5.2797-12.4642-8.3586-19.7225c-2.6604-6.2814-8.293-13.1291-14.9684-16.1425-7.0201-3.1613-15.1816-2.0937-22.2429,8.3424-.1562.2297-.3121.4761-.4765.7223l.3038-.6567h.0082v-.0082c.0082-.0165.0165-.0491.0412-.0985l.0326-.082.0577-.1315,5.255-11.2651c.1232-.2465.2461-.4926.3776-.7473.1724-.3368.345-.6814.5256-1.0264.1641-.3285.3368-.6567.5091-.9852,2.5863-4.9347,5.8296-10.4934,9.4835-15.7978,3.3089-4.1465,6.889-7.9806,10.6987-11.2898.3203-.2791.6485-.5582.977-.8294.3941-.3282.7885-.6567,1.1908-.9688.2956-.2382.5911-.4761.8949-.7061.7223-.55,1.4531-1.0837,2.184-1.5928,8.0301-5.5917,18.3512-6.8234,27.5147-3.3913.2053.0741.4023.1479.5994.23.5335.2053,1.059.4188,1.5846.6488.1723.0738.3446.1476.5091.2214.4023.1727.7964.3532,1.1905.542.4682.2218.9196.4435,1.3714.6732.1065.0577.205.1068.3035.1562.5173.2709,1.0264.5417,1.5273.8294.5173.2956,1.0182.5911,1.519.8949.4926.3038.9855.6158,1.4617.9279.4597.3038.9196.6076,1.3628.9276.0083.0165.0247.0247.0412.0329.4514.3203.9032.657,1.3384.9852.2379.1809.4679.3615.6979.542h.0082c4.048,3.2268,7.0939,6.3222,8.7938,8.178.0082.0165.0244.0247.0327.0329.5338.5091,1.0593,1.0182,1.601,1.5516l.1809.1809c.0082,0,.0082.0079.0082.0079l8.3994,18.647,27.2764,60.596Z"/><path class="cls-1" d="m248.8951,67.5566c-.0165.0329-.0329.0659-.0412.0985-.5449-.5366-1.0733-1.0486-1.6099-1.5605-.0079-.0079-.0152-.0155-.0231-.0234-1.6996-1.8555-4.7462-4.9515-8.7945-8.1786h-.0082c-.23-.1806-.46-.3611-.6979-.542-.4353-.3364-.887-.6649-1.3384-.9852-.0165-.0082-.0329-.0165-.0412-.0329-.4432-.32-.9032-.6238-1.3628-.9276-.4761-.3203-.9691-.6323-1.4617-.9279-.5008-.312-1.0017-.6076-1.519-.8949-.5008-.2876-1.0099-.5585-1.5273-.8294-.0985-.0494-.197-.0985-.3035-.1562-.4517-.2297-.9114-.4597-1.3714-.6732-.3941-.1888-.7882-.3694-1.1905-.542-.1644-.0738-.3368-.1476-.5091-.2214-.5256-.23-1.0511-.4435-1.5846-.6488-.197-.082-.3941-.1559-.5994-.23-9.1635-3.4321-19.4846-2.2004-27.5147,3.3913-.7308.5091-1.4617,1.0429-2.184,1.5928-.3038.23-.5994.4679-.8949.7061-.4023.312-.7967.6406-1.1908.9688-.3285.2712-.6567.5503-.977.8294-3.8098,3.3092-7.3898,7.1433-10.6987,11.2898-3.6539,5.3044-6.8972,10.8631-9.4835,15.7978-.1723.3285-.345.6567-.5091.9852-.1806.345-.3532.6897-.5256,1.0264-.1315.2547-.2544.5008-.3776.7473l-5.255,11.2651-.0577.1315-.0326.082c-.0247.0494-.0329.082-.0412.0985v.0082h-.0082l-.3038.6567-.0082.0165-6.3305,13.6135-.0082.0165-79.1116,169.9809h0c-5.1735,11.109-16.317,18.2118-28.5715,18.2118H0L106.9298,67.844c20.2889-48.8297,74.1848-116.2982,133.4671-15.7975,2.8245,4.7785,5.6573,9.9432,8.4983,15.5101Z"/><path class="cls-3" d="m496.1813,301.6972h-69.2913l-34.4445-81.3038-34.4198-81.2708-5.2797-12.4642-8.3589-19.7225c-2.6601-6.2814-8.2927-13.1291-14.9681-16.1425-7.0204-3.1613-15.182-2.0937-22.2433,8.3424-.1559.2297-.312.4761-.4761.7223l.3038-.6567h.0082v-.0082c.0082-.0165.0162-.0491.0409-.0985l.033-.082.0573-.1315,5.255-11.2651c.1232-.2465.2465-.4926.3776-.7473.1727-.3368.345-.6814.5256-1.0264.1644-.3285.3367-.6567.5091-.9852,2.5866-4.9347,5.83-10.4934,9.4835-15.7978,3.3092-4.1465,6.889-7.9806,10.6987-11.2898.3203-.2791.6488-.5582.9773-.8294.3941-.3282.7882-.6567,1.1905-.9688.2956-.2382.5911-.4761.8949-.7061.7226-.55,1.4534-1.0837,2.1843-1.5928,8.0301-5.5917,18.3511-6.8234,27.5144-3.3913.2053.0741.4023.1479.5994.23.5338.2053,1.0594.4188,1.5846.6488.1727.0738.345.1476.5091.2214.4023.1727.7967.3532,1.1908.542.4679.2218.9193.4435,1.3711.6732.1068.0577.2053.1068.3038.1562.5173.2709,1.0264.5417,1.5273.8294.5173.2956,1.0182.5911,1.519.8949.4926.3038.9852.6158,1.4614.9279.46.3038.9197.6076,1.3632.9276.0082.0165.0247.0247.0408.0329.4517.3203.9032.657,1.3384.9852.2382.1809.4682.3615.6979.542h.0082c4.048,3.2268,7.0942,6.3222,8.7938,8.178.0082.0165.0247.0247.0329.0329.5338.5091,1.059,1.0182,1.6011,1.5516l.1806.1809c.0082,0,.0082.0079.0082.0079l8.3997,18.647,27.2764,60.596,69.6199,154.6102Z"/><path class="cls-1" d="m390.609,67.3054c-.0162.0329.2845.5059.2762.5385-.5449-.5366-1.2621-1.2374-1.7991-1.7493-.0079-.0079-.0152-.0155-.0231-.0234-1.6996-1.8555-4.7459-4.9515-8.7945-8.1786h-.0082c-.2297-.1806-.4597-.3611-.6979-.542-.4352-.3364-.8867-.6649-1.3384-.9852-.0162-.0082-.0326-.0165-.0408-.0329-.4435-.32-.9032-.6238-1.3632-.9276-.4761-.3203-.9688-.6323-1.4614-.9279-.5008-.312-1.0017-.6076-1.519-.8949-.5008-.2876-1.0099-.5585-1.5273-.8294-.0985-.0494-.197-.0985-.3038-.1562-.4517-.2297-.9114-.4597-1.3711-.6732-.3941-.1888-.7885-.3694-1.1908-.542-.1641-.0738-.3364-.1476-.5091-.2214-.5252-.23-1.0508-.4435-1.5846-.6488-.197-.082-.3941-.1559-.5994-.23-9.1632-3.4321-19.4843-2.2004-27.5144,3.3913-.7308.5091-1.4617,1.0429-2.1843,1.5928-.3038.23-.5994.4679-.8949.7061-.4023.312-.7964.6406-1.1905.9688-.3285.2712-.6571.5503-.9773.8294-3.8097,3.3092-7.3895,7.1433-10.6987,11.2898-3.6535,5.3044-6.8969,10.8631-9.4835,15.7978-.1723.3285-.3447.6567-.5091.9852-.1806.345-.3529.6897-.5256,1.0264-.1312.2547-.2544.5008-.3776.7473l-5.255,11.2651-.0573.1315-.033.082c-.0247.0494-.0326.082-.0409.0985v.0082h-.0082l-.3038.6567-.0082.0165-6.3308,13.6135-.0079.0165-15.6337,33.5825-34.116,73.3064-29.3619,63.092h0c-5.1739,11.109-16.3174,18.2118-28.5718,18.2118h-50.8271l74.341-162.5746,32.5887-71.2786c.0247-.0656.0494-.1229.082-.1888.0083-.0326.0247-.0656.0412-.0985,20.3792-48.8053,74.1769-115.8139,133.3442-15.5101,2.8245,4.7785,5.529,9.6919,8.3697,15.2589Z"/><path class="cls-5" d="m496.62,301.6972h-69.2913l-69.303-162.5746-5.2797-12.4642-8.3589-19.7225c-2.6601-6.2814-8.2927-13.1291-14.9681-16.1425-7.0204-3.1613-15.182-2.0937-22.2433,8.3424-.1559.2297-.312.4761-.4761.7223l.3038-.6567h.0082v-.0082c.0082-.0165.0162-.0491.0409-.0985l.033-.082.0573-.1315,5.255-11.2651c.1232-.2465.2465-.4926.3776-.7473.1727-.3368.345-.6814.5256-1.0264.1644-.3285.3367-.6567.5091-.9852,2.5866-4.9347,5.83-10.4934,9.4835-15.7978,3.3092-4.1465,6.889-7.9806,10.6987-11.2898.3203-.2791.6488-.5582.9773-.8294.3941-.3282.7882-.6567,1.1905-.9688.2956-.2382.5911-.4761.8949-.7061.7226-.55,1.4534-1.0837,2.1843-1.5928,8.0301-5.5917,18.3511-6.8234,27.5144-3.3913.2053.0741.4023.1479.5994.23.5338.2053,1.0594.4188,1.5846.6488.1727.0738.345.1476.5091.2214.4023.1727.7967.3532,1.1908.542.4679.2218.9193.4435,1.3711.6732.1068.0577.2053.1068.3038.1562.5173.2709,1.0264.5417,1.5273.8294.5173.2956,1.0182.5911,1.519.8949.4926.3038.9852.6158,1.4614.9279.46.3038.9197.6076,1.3632.9276.0082.0165.0247.0247.0408.0329.4517.3203.9032.657,1.3384.9852.2382.1809.4682.3615.6979.542h.0082c4.048,3.2268,7.0942,6.3222,8.7938,8.178.0082.0165.0247.0247.0329.0329.5338.5091,1.059,1.0182,1.6011,1.5516l.1806.1809c.0082,0,.0082.0079.0082.0079l8.3997,18.647,97.3351,215.2062Z"/></svg>
